<?xml version="1.0" encoding="utf-8"?>
<svg xmlns="http://www.w3.org/2000/svg" viewBox="0 0 500 500" width="500px" height="500px">
  <!-- OpenAI hexagon (white fill for light mode) -->
  <path d="M 457.812 205.333 C 468.842 172.644 465.05 136.837 447.393 107.112 C 420.858 61.512 367.494 38.041 315.381 49.093 C 292.203 23.318 258.894 8.665 223.977 8.87 C 170.712 8.751 123.44 42.589 107.06 92.605 C 72.837 99.518 43.297 120.649 26.017 150.612 C -0.727 196.093 5.367 253.416 41.097 292.415 C 30.054 325.104 33.861 360.912 51.507 390.647 C 78.056 436.247 131.405 459.707 183.518 448.666 C 206.685 474.431 240.006 489.094 274.934 488.865 C 328.224 488.998 375.508 455.135 391.889 405.072 C 426.111 398.158 455.652 377.026 472.932 347.064 C 499.639 301.583 493.534 244.296 457.831 205.297 Z M 274.959 457.499 C 253.627 457.536 232.976 450.167 216.597 436.679 L 316.344 379.872 C 321.292 377.099 324.333 371.891 324.308 366.264 L 324.308 231.516 L 365.244 254.844 L 365.244 367.548 C 365.973 417.168 325.245 457.391 274.959 457.499 Z M 79.101 374.951 C 68.411 356.747 64.568 335.4 68.228 314.688 L 167.976 371.578 C 172.875 374.412 178.956 374.412 183.883 371.578 L 302.139 304.2 L 302.139 350.843 L 203.644 407.88 C 160.034 432.658 104.335 417.922 79.113 374.951 Z M 53.61 166.321 C 64.251 148.068 81.046 134.125 101.051 126.877 L 101.003 240.6 C 100.98 246.204 104.018 251.412 108.957 254.184 L 227.213 321.553 L 186.279 344.88 L 86.956 289.164 C 43.432 264.3 28.51 209.352 53.586 166.332 Z M 389.968 243.551 L 271.711 176.173 L 312.645 152.856 L 411.955 208.525 C 455.565 233.376 470.503 288.42 445.314 331.44 C 434.66 349.644 417.879 363.598 397.885 370.859 L 397.885 257.135 C 397.934 251.532 394.904 246.336 389.979 243.551 Z M 430.707 183.037 L 330.96 126.144 C 326.06 123.312 319.98 123.312 315.054 126.144 L 196.797 193.525 L 196.797 146.869 L 295.28 89.893 C 338.903 65.065 394.662 79.838 419.8 122.893 C 430.428 141.072 434.272 162.36 430.671 183.037 Z M 174.543 266.184 L 133.583 242.856 L 132.793 130.164 C 132.816 80.485 173.666 40.225 224.015 40.249 C 245.321 40.249 265.934 47.629 282.303 61.07 L 182.569 117.877 C 177.607 120.649 174.567 125.844 174.602 131.472 Z M 196.774 218.881 L 249.456 188.856 L 302.126 218.856 L 302.126 278.88 L 249.456 308.879 L 196.774 278.88 Z" fill="white"/>
  <!-- MLflow blue badge -->
  <circle cx="370" cy="375" r="105" fill="#0194E2"/>
  <text x="370" y="395" font-family="Arial,Helvetica,sans-serif" font-size="72" font-weight="bold" fill="white" text-anchor="middle" dominant-baseline="middle">ML</text>
</svg>
